<svg xmlns="http://www.w3.org/2000/svg" viewBox="0 0 24 24" fill="currentColor"><path fill-rule="evenodd" d="M7 9.75H17A2.75 2.75 0 0 1 19.75 12.5V18.25A2.75 2.75 0 0 1 17 21H7A2.75 2.75 0 0 1 4.25 18.25V12.5A2.75 2.75 0 0 1 7 9.75ZM7 11.25H17A1.25 1.25 0 0 1 18.25 12.5V18.25A1.25 1.25 0 0 1 17 19.5H7A1.25 1.25 0 0 1 5.75 18.25V12.5A1.25 1.25 0 0 1 7 11.25Z"/><path fill-rule="evenodd" d="M7.25 8A4.75 4.75 0 0 1 16.75 8L15.25 8A3.25 3.25 0 0 0 8.75 8ZM7.25 8H8.75V10H7.25ZM15.25 8H16.75V10H15.25Z"/><path fill-rule="evenodd" d="M12 13.85A1.4 1.4 0 1 1 12 16.65A1.4 1.4 0 1 1 12 13.85Z"/></svg>
