<svg xmlns="http://www.w3.org/2000/svg" viewBox="0 0 24 24" fill="currentColor"><path fill-rule="evenodd" d="M3.75 5H13A1.75 1.75 0 0 1 14.75 6.75V14.5A1.75 1.75 0 0 1 13 16.25H3.75A1.75 1.75 0 0 1 2 14.5V6.75A1.75 1.75 0 0 1 3.75 5ZM3.75 6.5H13A0.25 0.25 0 0 1 13.25 6.75V14.5A0.25 0.25 0 0 1 13 14.75H3.75A0.25 0.25 0 0 1 3.5 14.5V6.75A0.25 0.25 0 0 1 3.75 6.5Z"/><path fill-rule="evenodd" d="M13.25 8L18.56 8L22 11.44L22 16.25L13.25 16.25ZM14.75 9.5L17.94 9.5L20.5 12.06L20.5 14.75L14.75 14.75Z"/><path fill-rule="evenodd" d="M6.75 15A2.5 2.5 0 1 1 6.75 20A2.5 2.5 0 1 1 6.75 15ZM6.75 16.5A1 1 0 1 1 6.75 18.5A1 1 0 1 1 6.75 16.5Z"/><path fill-rule="evenodd" d="M17.25 15A2.5 2.5 0 1 1 17.25 20A2.5 2.5 0 1 1 17.25 15ZM17.25 16.5A1 1 0 1 1 17.25 18.5A1 1 0 1 1 17.25 16.5Z"/></svg>
